{
	"asset":{
		"generator":"Khronos glTF Blender I/O v4.2.70",
		"version":"2.0"
	},
	"extensionsUsed":[
		"KHR_materials_specular"
	],
	"scene":0,
	"scenes":[
		{
			"name":"Scene",
			"nodes":[
				0,
				1,
				2,
				3
			]
		}
	],
	"nodes":[
		{
			"mesh":0,
			"name":"Object_66",
			"translation":[
				0.3924657702445984,
				0,
				0.3488527238368988
			]
		},
		{
			"mesh":1,
			"name":"Object_230",
			"translation":[
				-0.09789779782295227,
				0,
				-1.0166943073272705
			]
		},
		{
			"mesh":2,
			"name":"Object_232",
			"translation":[
				-0.5433869957923889,
				0,
				0
			]
		},
		{
			"mesh":3,
			"name":"Object_234",
			"translation":[
				0.8043282628059387,
				0,
				-0.3047926425933838
			]
		}
	],
	"materials":[
		{
			"doubleSided":true,
			"emissiveFactor":[
				0.47238239645957947,
				0.47238239645957947,
				0.47238239645957947
			],
			"emissiveTexture":{
				"index":0
			},
			"extensions":{
				"KHR_materials_specular":{
					"specularFactor":0.1508575975894928
				}
			},
			"name":"lpb_gradient",
			"pbrMetallicRoughness":{
				"baseColorTexture":{
					"index":1
				},
				"metallicFactor":0,
				"roughnessFactor":0.8335263729095459
			}
		}
	],
	"meshes":[
		{
			"name":"Object_31",
			"primitives":[
				{
					"attributes":{
						"POSITION":0,
						"NORMAL":1,
						"TEXCOORD_0":2
					},
					"indices":3,
					"material":0
				}
			]
		},
		{
			"name":"Object_113",
			"primitives":[
				{
					"attributes":{
						"POSITION":4,
						"NORMAL":5,
						"TEXCOORD_0":6
					},
					"indices":7,
					"material":0
				}
			]
		},
		{
			"name":"Object_114",
			"primitives":[
				{
					"attributes":{
						"POSITION":8,
						"NORMAL":9,
						"TEXCOORD_0":10
					},
					"indices":11,
					"material":0
				}
			]
		},
		{
			"name":"Object_115",
			"primitives":[
				{
					"attributes":{
						"POSITION":12,
						"NORMAL":13,
						"TEXCOORD_0":14
					},
					"indices":11,
					"material":0
				}
			]
		}
	],
	"textures":[
		{
			"sampler":0,
			"source":0
		},
		{
			"sampler":0,
			"source":0
		}
	],
	"images":[
		{
			"mimeType":"image/png",
			"name":"lpb_gradient_baseColor",
			"uri":"textures/lpb_gradient_baseColor.png"
		}
	],
	"accessors":[
		{
			"bufferView":0,
			"componentType":5126,
			"count":367,
			"max":[
				0.22682663798332214,
				0.3633844554424286,
				0.21859176456928253
			],
			"min":[
				-0.22216874361038208,
				0.0027354226913303137,
				-0.23027102649211884
			],
			"type":"VEC3"
		},
		{
			"bufferView":1,
			"componentType":5126,
			"count":367,
			"type":"VEC3"
		},
		{
			"bufferView":2,
			"componentType":5126,
			"count":367,
			"type":"VEC2"
		},
		{
			"bufferView":3,
			"componentType":5123,
			"count":2040,
			"type":"SCALAR"
		},
		{
			"bufferView":4,
			"componentType":5126,
			"count":258,
			"max":[
				0.47627952694892883,
				1.5005793571472168,
				0.47627949714660645
			],
			"min":[
				-0.47627949714660645,
				-0.012171223759651184,
				-0.47627949714660645
			],
			"type":"VEC3"
		},
		{
			"bufferView":5,
			"componentType":5126,
			"count":258,
			"type":"VEC3"
		},
		{
			"bufferView":6,
			"componentType":5126,
			"count":258,
			"type":"VEC2"
		},
		{
			"bufferView":7,
			"componentType":5123,
			"count":1500,
			"type":"SCALAR"
		},
		{
			"bufferView":8,
			"componentType":5126,
			"count":162,
			"max":[
				0.47627952694892883,
				1.2275828123092651,
				0.47627949714660645
			],
			"min":[
				-0.47627949714660645,
				-0.012171223759651184,
				-0.47627949714660645
			],
			"type":"VEC3"
		},
		{
			"bufferView":9,
			"componentType":5126,
			"count":162,
			"type":"VEC3"
		},
		{
			"bufferView":10,
			"componentType":5126,
			"count":162,
			"type":"VEC2"
		},
		{
			"bufferView":11,
			"componentType":5123,
			"count":936,
			"type":"SCALAR"
		},
		{
			"bufferView":12,
			"componentType":5126,
			"count":162,
			"max":[
				0.47627952694892883,
				1.2275828123092651,
				0.47627949714660645
			],
			"min":[
				-0.47627949714660645,
				-0.012171223759651184,
				-0.47627949714660645
			],
			"type":"VEC3"
		},
		{
			"bufferView":13,
			"componentType":5126,
			"count":162,
			"type":"VEC3"
		},
		{
			"bufferView":14,
			"componentType":5126,
			"count":162,
			"type":"VEC2"
		}
	],
	"bufferViews":[
		{
			"buffer":0,
			"byteLength":4404,
			"byteOffset":0,
			"target":34962
		},
		{
			"buffer":0,
			"byteLength":4404,
			"byteOffset":4404,
			"target":34962
		},
		{
			"buffer":0,
			"byteLength":2936,
			"byteOffset":8808,
			"target":34962
		},
		{
			"buffer":0,
			"byteLength":4080,
			"byteOffset":11744,
			"target":34963
		},
		{
			"buffer":0,
			"byteLength":3096,
			"byteOffset":15824,
			"target":34962
		},
		{
			"buffer":0,
			"byteLength":3096,
			"byteOffset":18920,
			"target":34962
		},
		{
			"buffer":0,
			"byteLength":2064,
			"byteOffset":22016,
			"target":34962
		},
		{
			"buffer":0,
			"byteLength":3000,
			"byteOffset":24080,
			"target":34963
		},
		{
			"buffer":0,
			"byteLength":1944,
			"byteOffset":27080,
			"target":34962
		},
		{
			"buffer":0,
			"byteLength":1944,
			"byteOffset":29024,
			"target":34962
		},
		{
			"buffer":0,
			"byteLength":1296,
			"byteOffset":30968,
			"target":34962
		},
		{
			"buffer":0,
			"byteLength":1872,
			"byteOffset":32264,
			"target":34963
		},
		{
			"buffer":0,
			"byteLength":1944,
			"byteOffset":34136,
			"target":34962
		},
		{
			"buffer":0,
			"byteLength":1944,
			"byteOffset":36080,
			"target":34962
		},
		{
			"buffer":0,
			"byteLength":1296,
			"byteOffset":38024,
			"target":34962
		}
	],
	"samplers":[
		{
			"magFilter":9729,
			"minFilter":9987
		}
	],
	"buffers":[
		{
			"byteLength":39320,
			"uri":"trees.bin"
		}
	]
}
