{
	"asset":{
		"generator":"Khronos glTF Blender I/O v4.2.70",
		"version":"2.0"
	},
	"extensionsUsed":[
		"KHR_materials_specular"
	],
	"scene":0,
	"scenes":[
		{
			"name":"Scene",
			"nodes":[
				0
			]
		}
	],
	"nodes":[
		{
			"mesh":0,
			"name":"Object_216",
			"translation":[
				-0.20000001788139343,
				0,
				0.2500000298023224
			]
		}
	],
	"materials":[
		{
			"doubleSided":true,
			"emissiveFactor":[
				0.47238239645957947,
				0.47238239645957947,
				0.47238239645957947
			],
			"emissiveTexture":{
				"index":0
			},
			"extensions":{
				"KHR_materials_specular":{
					"specularFactor":0.1508575975894928
				}
			},
			"name":"lpb_gradient",
			"pbrMetallicRoughness":{
				"baseColorTexture":{
					"index":1
				},
				"metallicFactor":0,
				"roughnessFactor":0.8335263729095459
			}
		}
	],
	"meshes":[
		{
			"name":"Object_106",
			"primitives":[
				{
					"attributes":{
						"POSITION":0,
						"NORMAL":1,
						"TEXCOORD_0":2
					},
					"indices":3,
					"material":0
				}
			]
		}
	],
	"textures":[
		{
			"sampler":0,
			"source":0
		},
		{
			"sampler":0,
			"source":0
		}
	],
	"images":[
		{
			"mimeType":"image/png",
			"name":"lpb_gradient_baseColor",
			"uri":"textures/lpb_gradient_baseColor.png"
		}
	],
	"accessors":[
		{
			"bufferView":0,
			"componentType":5126,
			"count":1388,
			"max":[
				0.6529536247253418,
				0.9008792638778687,
				0.28900623321533203
			],
			"min":[
				-0.22015774250030518,
				-0.1698303520679474,
				-0.8109958171844482
			],
			"type":"VEC3"
		},
		{
			"bufferView":1,
			"componentType":5126,
			"count":1388,
			"type":"VEC3"
		},
		{
			"bufferView":2,
			"componentType":5126,
			"count":1388,
			"type":"VEC2"
		},
		{
			"bufferView":3,
			"componentType":5123,
			"count":2556,
			"type":"SCALAR"
		}
	],
	"bufferViews":[
		{
			"buffer":0,
			"byteLength":16656,
			"byteOffset":0,
			"target":34962
		},
		{
			"buffer":0,
			"byteLength":16656,
			"byteOffset":16656,
			"target":34962
		},
		{
			"buffer":0,
			"byteLength":11104,
			"byteOffset":33312,
			"target":34962
		},
		{
			"buffer":0,
			"byteLength":5112,
			"byteOffset":44416,
			"target":34963
		}
	],
	"samplers":[
		{
			"magFilter":9729,
			"minFilter":9987
		}
	],
	"buffers":[
		{
			"byteLength":49528,
			"uri":"stairs.bin"
		}
	]
}
